<svg id="Layer_1" data-name="Layer 1" xmlns="http://www.w3.org/2000/svg" viewBox="0 0 288 239"><defs><style>.cls-1{fill:#c1a491;}.cls-2{fill:#ce7676;}.cls-3{fill:#a55858;}.cls-4{fill:none;stroke:#efe4bf;stroke-miterlimit:10;stroke-width:3px;}</style></defs><title>Assetts</title><path class="cls-1" d="M253.64,101.43A123.14,123.14,0,0,1,130.51,224.56,110.82,110.82,0,0,1,19.69,113.74,99.74,99.74,0,0,1,119.43,14a89.77,89.77,0,0,1,89.77,89.77,80.79,80.79,0,0,1-80.79,80.79,72.71,72.71,0,0,1-72.71-72.71,65.44,65.44,0,0,1,65.44-65.44A58.9,58.9,0,0,1,180,105.3a53,53,0,0,1-53,53"/><path class="cls-2" d="M74.5,154s-6-11,4-22,7-28,7-28-1-13,10-25,4-23,4-23h-30s7,11-4,23-10,25-10,25,3,17-7,28-4,22-4,22Z"/><path class="cls-3" d="M73.5,155a36,36,0,0,1,2-22c5-11,3.48-28,3.48-28s-.5-13,5-25a34.86,34.86,0,0,0,2-23H71a34.86,34.86,0,0,1-2,23c-5.46,12-5,25-5,25s1.49,17-3.48,28a36,36,0,0,0-2,22Z"/><path class="cls-2" d="M157.5,211s-6-11,4-22,7-28,7-28-1-13,10-25,4-23,4-23h-30s7,11-4,23-10,25-10,25,3,17-7,28-4,22-4,22Z"/><path class="cls-3" d="M156.5,212a36,36,0,0,1,2-22c5-11,3.48-28,3.48-28s-.5-13,5-25a34.86,34.86,0,0,0,2-23H154a34.86,34.86,0,0,1-2,23c-5.46,12-5,25-5,25s1.49,17-3.48,28a36,36,0,0,0-2,22Z"/><path class="cls-2" d="M140.5,128s-6-11,4-22,7-28,7-28-1-13,10-25,4-23,4-23h-30s7,11-4,23-10,25-10,25,3,17-7,28-4,22-4,22Z"/><path class="cls-3" d="M139.5,129a36,36,0,0,1,2-22c5-11,3.48-28,3.48-28s-.5-13,5-25a34.86,34.86,0,0,0,2-23H137a34.86,34.86,0,0,1-2,23c-5.46,12-5,25-5,25s1.49,17-3.48,28a36,36,0,0,0-2,22Z"/><path class="cls-4" d="M272.64,99.43A123.14,123.14,0,0,1,149.51,222.56,110.82,110.82,0,0,1,38.69,111.74,99.74,99.74,0,0,1,138.43,12a89.77,89.77,0,0,1,89.77,89.77,80.79,80.79,0,0,1-80.79,80.79,72.71,72.71,0,0,1-72.71-72.71,65.44,65.44,0,0,1,65.44-65.44A58.9,58.9,0,0,1,199,103.3a53,53,0,0,1-53,53"/></svg>