<svg id="Layer_1" data-name="Layer 1" xmlns="http://www.w3.org/2000/svg" viewBox="0 0 300 300"><defs><style>.cls-1{fill:#fcf2f2;}.cls-2{fill:#9de0dc;}.cls-3,.cls-4,.cls-5,.cls-6{fill:none;stroke-width:3px;}.cls-3{stroke:#f9039b;stroke-miterlimit:10;}.cls-4{stroke:#c1f9aa;}.cls-4,.cls-5,.cls-6{stroke-linecap:round;stroke-linejoin:round;}.cls-5{stroke:#f2f723;}.cls-6{stroke:#255cf4;}</style></defs><title>bigbun</title><rect class="cls-1" width="300" height="300"/><path class="cls-2" d="M257.48,133.15A123.14,123.14,0,0,1,134.34,256.28,110.82,110.82,0,0,1,23.52,145.46a99.74,99.74,0,0,1,99.74-99.74A89.77,89.77,0,0,1,213,135.48a80.79,80.79,0,0,1-80.79,80.79,72.71,72.71,0,0,1-72.71-72.71A65.44,65.44,0,0,1,125,78.12a58.9,58.9,0,0,1,58.9,58.9,53,53,0,0,1-53,53"/><path class="cls-3" d="M276.48,131.15A123.14,123.14,0,0,1,153.34,254.28,110.82,110.82,0,0,1,42.52,143.46a99.74,99.74,0,0,1,99.74-99.74A89.77,89.77,0,0,1,232,133.48a80.79,80.79,0,0,1-80.79,80.79,72.71,72.71,0,0,1-72.71-72.71A65.44,65.44,0,0,1,144,76.12a58.9,58.9,0,0,1,58.9,58.9,53,53,0,0,1-53,53"/><line class="cls-4" x1="134.34" y1="119.22" x2="144.84" y2="129.72"/><line class="cls-4" x1="133.34" y1="168.22" x2="141.84" y2="159.72"/><line class="cls-4" x1="65.34" y1="161.22" x2="65.34" y2="176.22"/><line class="cls-4" x1="65.34" y1="102.22" x2="88.84" y2="78.72"/><line class="cls-4" x1="166.34" y1="69.22" x2="174.34" y2="77.22"/><line class="cls-5" x1="220.34" y1="197.22" x2="212.34" y2="205.22"/><line class="cls-5" x1="54.34" y1="127.22" x2="67.84" y2="140.72"/><line class="cls-5" x1="102.34" y1="133.22" x2="112.84" y2="143.72"/><line class="cls-5" x1="132.34" y1="57.22" x2="121.34" y2="68.22"/><line class="cls-5" x1="164.34" y1="125.22" x2="175.34" y2="136.22"/><line class="cls-5" x1="163.34" y1="160.22" x2="162.34" y2="148.22"/><line class="cls-5" x1="126.34" y1="142.22" x2="121.34" y2="149.22"/><line class="cls-6" x1="85.34" y1="210.22" x2="90.34" y2="203.22"/><line class="cls-6" x1="167.34" y1="101.22" x2="159.34" y2="108.22"/><line class="cls-6" x1="115.34" y1="225.22" x2="121.34" y2="235.22"/><line class="cls-6" x1="37.34" y1="144.22" x2="35.34" y2="157.22"/><line class="cls-6" x1="90.34" y1="152.22" x2="103.34" y2="158.22"/><line class="cls-6" x1="157.34" y1="227.22" x2="141.34" y2="238.22"/><line class="cls-6" x1="238.34" y1="160.22" x2="238.34" y2="177.22"/><line class="cls-6" x1="197.34" y1="181.22" x2="191.34" y2="188.22"/><line class="cls-6" x1="132.34" y1="187.22" x2="140.34" y2="190.22"/></svg>