<svg id="Layer_1" data-name="Layer 1" xmlns="http://www.w3.org/2000/svg" viewBox="0 0 288 239"><defs><style>.cls-1{fill:#9de0dc;}.cls-2,.cls-3,.cls-4,.cls-5{fill:none;stroke-width:3px;}.cls-2{stroke:#f9039b;stroke-miterlimit:10;}.cls-3{stroke:#c1f9aa;}.cls-3,.cls-4,.cls-5{stroke-linecap:round;stroke-linejoin:round;}.cls-4{stroke:#f2f723;}.cls-5{stroke:#255cf4;}</style></defs><title>Assetts</title><path class="cls-1" d="M253.64,101.43A123.14,123.14,0,0,1,130.51,224.56,110.82,110.82,0,0,1,19.69,113.74,99.74,99.74,0,0,1,119.43,14a89.77,89.77,0,0,1,89.77,89.77,80.79,80.79,0,0,1-80.79,80.79,72.71,72.71,0,0,1-72.71-72.71,65.44,65.44,0,0,1,65.44-65.44A58.9,58.9,0,0,1,180,105.3a53,53,0,0,1-53,53"/><path class="cls-2" d="M272.64,99.43A123.14,123.14,0,0,1,149.51,222.56,110.82,110.82,0,0,1,38.69,111.74,99.74,99.74,0,0,1,138.43,12a89.77,89.77,0,0,1,89.77,89.77,80.79,80.79,0,0,1-80.79,80.79,72.71,72.71,0,0,1-72.71-72.71,65.44,65.44,0,0,1,65.44-65.44A58.9,58.9,0,0,1,199,103.3a53,53,0,0,1-53,53"/><line class="cls-3" x1="130.5" y1="87.5" x2="141" y2="98"/><line class="cls-3" x1="129.5" y1="136.5" x2="138" y2="128"/><line class="cls-3" x1="61.5" y1="129.5" x2="61.5" y2="144.5"/><line class="cls-3" x1="61.5" y1="70.5" x2="85" y2="47"/><line class="cls-3" x1="162.5" y1="37.5" x2="170.5" y2="45.5"/><line class="cls-4" x1="216.5" y1="165.5" x2="208.5" y2="173.5"/><line class="cls-4" x1="50.5" y1="95.5" x2="64" y2="109"/><line class="cls-4" x1="98.5" y1="101.5" x2="109" y2="112"/><line class="cls-4" x1="128.5" y1="25.5" x2="117.5" y2="36.5"/><line class="cls-4" x1="160.5" y1="93.5" x2="171.5" y2="104.5"/><line class="cls-4" x1="159.5" y1="128.5" x2="158.5" y2="116.5"/><line class="cls-4" x1="122.5" y1="110.5" x2="117.5" y2="117.5"/><line class="cls-5" x1="81.5" y1="178.5" x2="86.5" y2="171.5"/><line class="cls-5" x1="163.5" y1="69.5" x2="155.5" y2="76.5"/><line class="cls-5" x1="111.5" y1="193.5" x2="117.5" y2="203.5"/><line class="cls-5" x1="33.5" y1="112.5" x2="31.5" y2="125.5"/><line class="cls-5" x1="86.5" y1="120.5" x2="99.5" y2="126.5"/><line class="cls-5" x1="153.5" y1="195.5" x2="137.5" y2="206.5"/><line class="cls-5" x1="234.5" y1="128.5" x2="234.5" y2="145.5"/><line class="cls-5" x1="193.5" y1="149.5" x2="187.5" y2="156.5"/><line class="cls-5" x1="128.5" y1="155.5" x2="136.5" y2="158.5"/></svg>