<svg id="Layer_1" data-name="Layer 1" xmlns="http://www.w3.org/2000/svg" viewBox="0 0 288 239"><defs><style>.cls-1{fill:#c11b1b;}.cls-2{fill:none;stroke:#751515;stroke-miterlimit:10;stroke-width:3px;}</style></defs><title>Assetts</title><path class="cls-1" d="M253.64,101.43A123.14,123.14,0,0,1,130.51,224.56,110.82,110.82,0,0,1,19.69,113.74,99.74,99.74,0,0,1,119.43,14a89.77,89.77,0,0,1,89.77,89.77,80.79,80.79,0,0,1-80.79,80.79,72.71,72.71,0,0,1-72.71-72.71,65.44,65.44,0,0,1,65.44-65.44A58.9,58.9,0,0,1,180,105.3a53,53,0,0,1-53,53"/><path class="cls-2" d="M272.64,99.43A123.14,123.14,0,0,1,149.51,222.56,110.82,110.82,0,0,1,38.69,111.74,99.74,99.74,0,0,1,138.43,12a89.77,89.77,0,0,1,89.77,89.77,80.79,80.79,0,0,1-80.79,80.79,72.71,72.71,0,0,1-72.71-72.71,65.44,65.44,0,0,1,65.44-65.44A58.9,58.9,0,0,1,199,103.3a53,53,0,0,1-53,53"/></svg>