<svg id="Layer_1" data-name="Layer 1" xmlns="http://www.w3.org/2000/svg" viewBox="0 0 288 239"><defs><style>.cls-1{fill:#d3bca7;}.cls-2{fill:#f2e6b1;}.cls-3{fill:none;stroke:#f2e6b1;stroke-miterlimit:10;stroke-width:3px;}</style></defs><title>Assetts</title><path class="cls-1" d="M253.64,101.43A123.14,123.14,0,0,1,130.51,224.56,110.82,110.82,0,0,1,19.69,113.74,99.74,99.74,0,0,1,119.43,14a89.77,89.77,0,0,1,89.77,89.77,80.79,80.79,0,0,1-80.79,80.79,72.71,72.71,0,0,1-72.71-72.71,65.44,65.44,0,0,1,65.44-65.44A58.9,58.9,0,0,1,180,105.3a53,53,0,0,1-53,53"/><path class="cls-2" d="M138,112.43c-2.27,5.27-4.88,10.89-6,10.57-1.12-.94-3.73-5.43-6-8.42s-.32-11.31,6-13.55C138.32,99.31,140.39,107.18,138,112.43Z"/><path class="cls-2" d="M88,162.43c-2.27,5.27-4.88,10.89-6,10.57-1.12-.94-3.73-5.43-6-8.42s-.32-11.31,6-13.55C88.32,149.31,90.39,157.18,88,162.43Z"/><path class="cls-2" d="M45,152.43c-2.27,5.27-4.88,10.89-6,10.57-1.12-.94-3.73-5.43-6-8.42s-.32-11.31,6-13.55C45.32,139.31,47.39,147.18,45,152.43Z"/><path class="cls-2" d="M232,158.43c-2.27,5.27-4.88,10.89-6,10.57-1.12-.94-3.73-5.43-6-8.42s-.32-11.31,6-13.55C232.32,145.31,234.39,153.18,232,158.43Z"/><path class="cls-2" d="M146,158.43c-2.27,5.27-4.88,10.89-6,10.57-1.12-.94-3.73-5.43-6-8.42s-.32-11.31,6-13.55C146.32,145.31,148.39,153.18,146,158.43Z"/><path class="cls-2" d="M109.5,35.93c-2.27,5.27-4.88,10.89-6,10.57-1.12-.94-3.73-5.43-6-8.42s-.32-11.31,6-13.55C109.82,22.81,111.89,30.68,109.5,35.93Z"/><path class="cls-2" d="M110,191.43c-2.27,5.27-4.88,10.89-6,10.57-1.12-.94-3.73-5.43-6-8.42s-.32-11.31,6-13.55C110.32,178.31,112.39,186.18,110,191.43Z"/><path class="cls-2" d="M192.5,108.93c-2.27,5.27-4.88,10.89-6,10.57-1.12-.94-3.73-5.43-6-8.42s-.32-11.31,6-13.55C192.82,95.81,194.89,103.68,192.5,108.93Z"/><path class="cls-2" d="M72,97.43c-2.27,5.27-4.88,10.89-6,10.57-1.12-.94-3.73-5.43-6-8.42S59.68,88.26,66,86C72.32,84.31,74.39,92.18,72,97.43Z"/><path class="cls-3" d="M272.64,99.43A123.14,123.14,0,0,1,149.51,222.56,110.82,110.82,0,0,1,38.69,111.74,99.74,99.74,0,0,1,138.43,12a89.77,89.77,0,0,1,89.77,89.77,80.79,80.79,0,0,1-80.79,80.79,72.71,72.71,0,0,1-72.71-72.71,65.44,65.44,0,0,1,65.44-65.44A58.9,58.9,0,0,1,199,103.3a53,53,0,0,1-53,53"/></svg>